<svg xmlns="http://www.w3.org/2000/svg" version="1.1" xmlns:xlink="http://www.w3.org/1999/xlink" xmlns:svgjs="http://svgjs.dev/svgjs" width="1000" height="623" viewBox="0 0 1000 623"><g transform="matrix(1,0,0,1,-0.6060606060606233,0.2522267206477409)"><svg viewBox="0 0 396 247" data-background-color="#ffffff" preserveAspectRatio="xMidYMid meet" height="623" width="1000" xmlns="http://www.w3.org/2000/svg" xmlns:xlink="http://www.w3.org/1999/xlink"><g id="tight-bounds" transform="matrix(1,0,0,1,0.2400000000000091,-0.09999999999999432)"><svg viewBox="0 0 395.52 247.2" height="247.2" width="395.52"><g><svg></svg></g><g><svg viewBox="0 0 395.52 247.2" height="247.2" width="395.52"><g transform="matrix(1,0,0,1,75.54432,55.863889833929264)"><svg viewBox="0 0 244.43135999999998 135.47222033214146" height="135.47222033214146" width="244.43135999999998"><g><svg viewBox="0 0 244.43135999999998 135.47222033214146" height="135.47222033214146" width="244.43135999999998"><g><svg viewBox="0 0 275.6408731111385 152.7696" height="135.47222033214146" width="244.43135999999998"><g transform="matrix(1,0,0,1,127.57187618806157,0)"><svg viewBox="0 0 148.06899692307695 152.7696" height="152.7696" width="148.06899692307695"><g id="textblocktransform"><svg viewBox="0 0 148.06899692307695 152.7696" height="152.7696" width="148.06899692307695" id="textblock"><g><svg viewBox="0 0 148.06899692307695 152.7696" height="152.7696" width="148.06899692307695"><g transform="matrix(1,0,0,1,0,0)"><svg width="148.06899692307695" viewBox="1 -9.25 9.45 9.75" height="152.7696" data-palette-color="#883d1a"><path d="M10.45-9L10.45 0.15Q10.45 0.5 5.73 0.5 1 0.5 1 0.2L1 0.2 1-8.8Q1-9.25 5.73-9.25 10.45-9.25 10.45-9L10.45-9Z" opacity="1" transform="matrix(1,0,0,1,0,0)" fill="#883d1a" class="wordmark-text-0" data-fill-palette-color="primary" id="text-0"></path></svg></g></svg></g></svg></g></svg></g><g transform="matrix(1,0,0,1,0,33.26673573618837)"><svg viewBox="0 0 91.50664009846156 86.23612852762325" height="86.23612852762325" width="91.50664009846156"><g><svg xmlns="http://www.w3.org/2000/svg" xmlns:xlink="http://www.w3.org/1999/xlink" version="1.1" x="0" y="0" viewBox="0.526 3.316999999999993 100.526 94.736" enable-background="new 0 0 100 100" xml:space="preserve" width="91.50664009846156" height="86.23612852762325" class="icon-icon-0" data-fill-palette-color="accent" id="icon-0"><g fill="#4d331f" data-fill-palette-color="accent"><g fill="#4d331f" data-fill-palette-color="accent"><path fill="none" d="M0.526 98.053c0-31.578 0-63.157 0-94.736 33.509 0 67.018 0 100.526 0 0 31.579 0 63.158 0 94.736C67.544 98.053 34.035 98.053 0.526 98.053zM80.591 69.381c5.434 1.553 8.351 4.539 9.298 9.998 0.44 2.54 0.717 5.21-2.032 7.084-1.123 0.765-0.372 2.599 1.144 3.324 1.325 0.635 2.739 0.526 4.136 0.494 3.403-0.078 4.475-1.327 3.834-4.621-0.385-1.981-0.559-3.97-0.572-5.974-0.024-3.602 0.452-7.107-1.076-10.724-1.511-3.574 0.637-7.326 1.245-10.961 0.558-3.335 1.067-6.513-0.327-9.722-0.277-0.638-0.5-1.316-0.637-1.998-1.229-6.116-5.438-10.716-8.166-16.067-0.227-0.443-0.726-0.746-1.096-1.118-2.273-2.287-5.295-3.054-8.244-3.75-7.223-1.704-14.644-1.094-21.971-1.432-5.081-0.234-10.123-0.578-15.144-1.322-0.761-0.113-1.776-0.264-2.175-0.782-2.004-2.599-4.302-5.067-4.009-8.795 0.249-3.164-0.649-3.941-3.504-5.385C25.989 4.949 20.24 5.322 14.618 4.763c-0.869-0.086-1.757-0.011-2.444 0.695-1.115 1.146-2.501 1.509-4.066 1.437C7.101 6.849 5.991 7.034 5.839 8.207c-0.315 2.431-0.73 5.064 0.142 7.277 0.787 1.996 0.864 3.6 0.047 5.427-0.294 0.658-0.323 1.378-0.19 2.069 0.916 4.762-0.347 9.47-0.504 14.197-0.105 3.175 0.361 5.273 2.783 7.507 1.267 1.168 2.395 3.331 3.044 5.037 1.351 3.547 1.967 7.253 4.408 10.48 1.632 2.158 2.861 4.463 5.507 5.543 0.959 0.392 1.524 1.244 1.701 2.217 0.56 3.081 1.697 6.08 1.316 9.306-0.121 1.03-0.08 2.058 0.16 3.12 0.752 3.333 0.289 4.265-2.626 6.181-0.586 0.386-1.136 0.821-1.511 1.439-0.938 1.548-0.637 2.827 0.944 3.77 3.429 2.042 10.192 0.551 10.092-4.805-0.031-1.698 0.827-2.386 2.382-2.434 0.676-0.021 1.405-0.231 2.044 0.399 0.186 1.056 0.312 2.155 0.109 3.314-0.511 0.163-0.938 0.255-1.326 0.433-1.634 0.749-2.41 2.646-2.058 4.923 0.242 1.563 1.63 1.461 2.646 1.69 3.862 0.872 7.16-1.135 8.309-4.941 0.177-0.587 0.321-1.185 0.45-1.784 0.259-1.202 0.652-2.055 2.21-2.029 1.455 0.024 2.527-1.101 3.622-1.962 0.93-0.731-0.108-1.637 0.133-2.467 0.142-0.488 0.139-0.91 0.612-1.332 1.447-1.288 1.206-2.944 0.697-4.586-0.207-0.664-0.903-1.111-0.872-1.876 0.009-0.236 0.145-0.468 0.205-0.651 0.799-0.411 1.497 0.897 2.231-0.002-0.547-4.024 0.686-5.499 4.951-6.079 2.601-0.354 5.192-0.781 7.774-1.25 2.526-0.46 5.927 1.348 6.766 3.84 0.614 1.826 1.201 3.646 2.121 5.351 0.513 0.951 0.455 2.034 0.504 3.087 0.054 1.181-0.303 1.999-1.555 2.35-1.339 0.375-2.26 1.332-2.869 2.547-0.566 1.129-0.231 2.021 0.873 2.646 2.383 1.35 6.877 0.457 8.55-1.635 0.906-1.133 0.92-2.422 0.925-3.735C80.6 77.041 80.591 73.295 80.591 69.381z"></path><path fill-rule="evenodd" clip-rule="evenodd" d="M80.591 69.381c0 3.914 0.009 7.66-0.004 11.406-0.005 1.313-0.019 2.603-0.925 3.735-1.673 2.092-6.167 2.984-8.55 1.635-1.104-0.626-1.439-1.518-0.873-2.646 0.609-1.215 1.53-2.172 2.869-2.547 1.252-0.351 1.608-1.169 1.555-2.35-0.049-1.053 0.009-2.136-0.504-3.087-0.92-1.705-1.507-3.524-2.121-5.351-0.839-2.492-4.239-4.3-6.766-3.84-2.582 0.469-5.174 0.896-7.774 1.25-4.266 0.58-5.498 2.055-4.951 6.079-0.734 0.899-1.432-0.409-2.231 0.002-0.061 0.184-0.196 0.415-0.205 0.651-0.031 0.765 0.665 1.212 0.872 1.876 0.509 1.642 0.75 3.298-0.697 4.586-0.474 0.422-0.471 0.844-0.612 1.332-0.241 0.83 0.797 1.735-0.133 2.467-1.094 0.861-2.167 1.986-3.622 1.962-1.559-0.025-1.951 0.827-2.21 2.029-0.129 0.6-0.273 1.197-0.45 1.784-1.149 3.807-4.447 5.813-8.309 4.941-1.017-0.229-2.404-0.127-2.646-1.69-0.352-2.277 0.424-4.174 2.058-4.923 0.388-0.178 0.815-0.27 1.326-0.433 0.203-1.159 0.076-2.259-0.109-3.314-0.64-0.631-1.369-0.42-2.044-0.399-1.555 0.048-2.413 0.735-2.382 2.434 0.101 5.355-6.663 6.847-10.092 4.805-1.581-0.942-1.882-2.222-0.944-3.77 0.375-0.618 0.925-1.054 1.511-1.439 2.915-1.916 3.378-2.848 2.626-6.181-0.24-1.062-0.281-2.09-0.16-3.12 0.38-3.226-0.757-6.225-1.316-9.306-0.177-0.973-0.742-1.825-1.701-2.217-2.646-1.08-3.875-3.385-5.507-5.543-2.441-3.227-3.057-6.933-4.408-10.48-0.65-1.706-1.777-3.868-3.044-5.037-2.422-2.234-2.889-4.332-2.783-7.507C5.49 32.45 6.752 27.742 5.837 22.98c-0.133-0.691-0.104-1.412 0.19-2.069 0.817-1.827 0.74-3.431-0.047-5.427-0.872-2.213-0.457-4.846-0.142-7.277 0.152-1.173 1.262-1.358 2.269-1.312 1.565 0.072 2.951-0.291 4.066-1.437 0.687-0.707 1.575-0.782 2.444-0.695 5.622 0.559 11.371 0.186 16.676 2.868 2.855 1.444 3.753 2.222 3.504 5.385-0.293 3.729 2.004 6.196 4.009 8.795 0.399 0.518 1.414 0.668 2.175 0.782 5.021 0.744 10.062 1.088 15.144 1.322 7.327 0.338 14.748-0.271 21.971 1.432 2.949 0.696 5.971 1.462 8.244 3.75 0.37 0.372 0.869 0.674 1.096 1.118 2.728 5.352 6.938 9.951 8.166 16.067 0.137 0.682 0.359 1.359 0.637 1.998 1.395 3.209 0.885 6.387 0.327 9.722-0.608 3.635-2.756 7.387-1.245 10.961 1.528 3.616 1.052 7.122 1.076 10.724 0.014 2.004 0.188 3.992 0.572 5.974 0.641 3.294-0.431 4.543-3.834 4.621-1.396 0.032-2.811 0.141-4.136-0.494-1.516-0.726-2.267-2.56-1.144-3.324 2.749-1.874 2.473-4.544 2.032-7.084C88.941 73.92 86.024 70.934 80.591 69.381z" fill="#4d331f" data-fill-palette-color="accent"></path></g></g></svg></g></svg></g></svg></g></svg></g></svg></g><path d="M248.704 49.864L248.704 4.754 11.011 4.754 11.011 242.446 248.704 242.446 248.704 197.336 236.487 197.336 236.487 230.229 23.228 230.229 23.228 16.971 236.487 16.971 236.487 49.864Z" fill="#883d1a" stroke="transparent" data-fill-palette-color="primary"></path></svg></g><defs></defs></svg><rect width="395.52" height="247.2" fill="none" stroke="none" visibility="hidden"></rect></g></svg></g></svg>