<svg xmlns="http://www.w3.org/2000/svg" version="1.1" xmlns:xlink="http://www.w3.org/1999/xlink" xmlns:svgjs="http://svgjs.dev/svgjs" width="1000" height="131" viewBox="0 0 1000 131"><g transform="matrix(1,0,0,1,-0.6060606060606233,-0.4418176748728797)"><svg viewBox="0 0 396 52" data-background-color="#ffffff" preserveAspectRatio="xMidYMid meet" height="131" width="1000" xmlns="http://www.w3.org/2000/svg" xmlns:xlink="http://www.w3.org/1999/xlink"><g id="tight-bounds" transform="matrix(1,0,0,1,0.2400000000000091,0.17537800834648465)"><svg viewBox="0 0 395.52 51.64924398330704" height="51.64924398330704" width="395.52"><g><svg viewBox="0 0 497.5380253103812 64.97133611506035" height="51.64924398330704" width="395.52"><g><rect width="4.239639754902325" height="47.24760694329641" x="406.61853338979665" y="8.861864585881971" fill="#883d1a" opacity="1" stroke-width="0" stroke="transparent" fill-opacity="1" class="rect-r$-0" data-fill-palette-color="primary" rx="1%" id="r$-0" data-palette-color="#883d1a"></rect></g><g transform="matrix(1,0,0,1,0,8.979395946437432)"><svg viewBox="0 0 395.52 47.01254422218549" height="47.01254422218549" width="395.52"><g id="textblocktransform"><svg viewBox="0 0 395.52 47.01254422218549" height="47.01254422218549" width="395.52" id="textblock"><g><svg viewBox="0 0 395.52 47.01254422218549" height="47.01254422218549" width="395.52"><g transform="matrix(1,0,0,1,0,0)"><svg width="395.52" viewBox="1.5 -35.45 301.43 35.95" height="47.01254422218549" data-palette-color="#883d1a"><g class="wordmark-text-0" data-fill-palette-color="primary" id="text-0"><path d="M16.8-35.45Q20.45-35.45 23.23-34.43 26-33.4 26-31.65 26-29.9 24.68-27.33 23.35-24.75 22.45-24.75L22.45-24.75Q22.2-24.75 21.88-25.03 21.55-25.3 20.38-25.63 19.2-25.95 18.35-25.95L18.35-25.95Q15.45-25.95 13.68-23.9 11.9-21.85 11.9-17.63 11.9-13.4 13.73-11.35 15.55-9.3 18.35-9.3L18.35-9.3Q19.5-9.3 20.93-9.63 22.35-9.95 22.95-10.55L22.95-10.55Q23.05-10.65 23.35-10.65 23.65-10.65 24.48-9.53 25.3-8.4 26-6.58 26.7-4.75 26.7-3.75L26.7-3.75Q26.7-1.8 23.7-0.65 20.7 0.5 16.6 0.5L16.6 0.5Q10 0.5 5.75-4.15 1.5-8.8 1.5-17.28 1.5-25.75 5.88-30.6 10.25-35.45 16.8-35.45L16.8-35.45ZM33.45-18.15L33.45-18.15Q32.05-20.65 32.05-22.23 32.05-23.8 32.9-24.25L32.9-24.25Q35.75-25.5 40.72-25.5 45.7-25.5 47.75-23.18 49.8-20.85 49.8-16.3L49.8-16.3 49.8-8.4 51.5-8.4Q52.35-8.4 52.82-7.4 53.3-6.4 53.3-4.65 53.3-2.9 52.42-1.2 51.55 0.5 50.05 0.5L50.05 0.5Q47.35 0.5 45.7-0.95L45.7-0.95Q44.95-1.55 44.55-2.4L44.55-2.4Q42.25 0.5 37.4 0.5L37.4 0.5Q33.75 0.5 31.25-2.1 28.75-4.7 28.75-8.25L28.75-8.25Q28.75-16.4 38.5-16.4L38.5-16.4 41.25-16.4 41.25-16.9Q41.25-18.2 40.82-18.57 40.4-18.95 38.85-18.95L38.85-18.95Q36.95-18.95 33.45-18.15ZM37.45-8.95L37.45-8.95Q37.45-7.85 38.05-7.28 38.65-6.7 39.57-6.7 40.5-6.7 41.25-7.45L41.25-7.45 41.25-11.3 39.85-11.3Q37.45-11.3 37.45-8.95ZM66.59-16.35L66.59-0.3Q66.59 0.05 63 0.05L63 0.05Q58-0.1 58-0.5L58-0.5 58-16.7 56.7-16.7Q55.4-16.7 55-18.9L55-18.9Q54.9-19.55 54.9-20.2L54.9-20.2Q54.9-21.75 55.5-23.3L55.5-23.3Q56.4-25.5 58.3-25.5 60.2-25.5 61.7-24.6 63.2-23.7 63.7-22.8L63.7-22.8Q66.84-25.5 71.2-25.5 75.55-25.5 77.5-23.15 79.45-20.8 79.45-15.45L79.45-15.45 79.45-0.45Q79.45 0.15 75.17 0.15 70.9 0.15 70.9-0.45L70.9-0.45 70.9-14.9Q70.9-17.4 69.15-17.4L69.15-17.4Q68.65-17.4 67.75-16.98 66.84-16.55 66.59-16.35L66.59-16.35ZM92.84-24.85L92.84-0.3Q92.84 0.1 88.27 0.1 83.69 0.1 83.69-0.25L83.69-0.25 83.69-24.8Q83.69-25.15 88.27-25.15 92.84-25.15 92.84-24.85L92.84-24.85ZM92.84-35.15L92.84-27.8Q92.84-27.45 88.27-27.45 83.69-27.45 83.69-27.75L83.69-27.75 83.69-34.95Q83.69-35.45 88.27-35.45 92.84-35.45 92.84-35.15L92.84-35.15ZM107.79-16.35L107.79-0.3Q107.79 0.05 104.19 0.05L104.19 0.05Q99.19-0.1 99.19-0.5L99.19-0.5 99.19-16.7 97.89-16.7Q96.59-16.7 96.19-18.9L96.19-18.9Q96.09-19.55 96.09-20.2L96.09-20.2Q96.09-21.75 96.69-23.3L96.69-23.3Q97.59-25.5 99.49-25.5 101.39-25.5 102.89-24.6 104.39-23.7 104.89-22.8L104.89-22.8Q108.04-25.5 112.39-25.5 116.74-25.5 118.69-23.15 120.64-20.8 120.64-15.45L120.64-15.45 120.64-0.45Q120.64 0.15 116.37 0.15 112.09 0.15 112.09-0.45L112.09-0.45 112.09-14.9Q112.09-17.4 110.34-17.4L110.34-17.4Q109.84-17.4 108.94-16.98 108.04-16.55 107.79-16.35L107.79-16.35ZM143.79-1.35L143.79-1.35Q140.64 0.5 135.69 0.5 130.74 0.5 127.34-2.88 123.94-6.25 123.94-12.23 123.94-18.2 127.21-21.85 130.49-25.5 135.49-25.5 140.49-25.5 143.21-22.95 145.94-20.4 145.94-16.75L145.94-16.75Q145.94-8.65 136.64-8.65L136.64-8.65 133.19-8.65Q133.19-7.15 134.01-6.58 134.84-6 136.44-6L136.44-6Q139.94-6 143.09-7.6L143.09-7.6Q143.14-7.65 143.54-6.9L143.54-6.9Q144.74-4.75 144.74-3.28 144.74-1.8 143.79-1.35ZM137.54-15.8L137.54-15.8Q137.54-17.9 135.49-17.9L135.49-17.9Q134.54-17.9 133.86-17.32 133.19-16.75 133.19-15.65L133.19-15.65 133.19-14.1 135.89-14.1Q137.54-14.1 137.54-15.8Z" fill="#883d1a" data-fill-palette-color="primary"></path><path d="M182.39-25.95L182.39-25.95Q182.39-20.75 177.89-18.05L177.89-18.05Q180.34-17.15 181.99-14.95 183.64-12.75 183.64-8.72 183.64-4.7 180.66-2.35 177.69 0 172.14 0L172.14 0 160.34 0Q159.49 0 158.94-0.58 158.39-1.15 158.39-2.1L158.39-2.1 158.39-34.1Q158.39-34.65 158.56-34.83 158.74-35 159.29-35L159.29-35 170.69-35Q182.39-35 182.39-25.95ZM169.04-26.9L167.99-26.9 167.99-20.35 168.24-20.35Q173.04-20.35 173.04-23.55L173.04-23.55Q173.04-25.3 172.11-26.1 171.19-26.9 169.04-26.9L169.04-26.9ZM169.04-14.45L167.99-14.45 167.99-7.95 168.89-7.95Q171.04-7.95 172.04-8.75 173.04-9.55 173.04-11.3 173.04-13.05 172.11-13.75 171.19-14.45 169.04-14.45L169.04-14.45ZM198.24-14L198.24-0.05Q198.24 0.3 193.69 0.3L193.69 0.3Q189.14 0.2 189.14-0.1L189.14-0.1 189.14-16.7 187.79-16.7Q186.99-16.7 186.51-17.68 186.04-18.65 186.04-20.1L186.04-20.1Q186.04-25.5 189.24-25.5L189.24-25.5Q191.49-25.5 192.99-24.13 194.49-22.75 194.49-21L194.49-21Q195.54-23.05 197.31-24.28 199.09-25.5 200.94-25.5L200.94-25.5Q203.84-25.5 204.44-24L204.44-24Q204.59-23.6 204.59-22.83 204.59-22.05 204.11-20.05 203.64-18.05 203.14-17.15 202.64-16.25 202.54-16.25 202.44-16.25 201.61-16.63 200.79-17 200.14-17L200.14-17Q198.24-17 198.24-14L198.24-14ZM225.98-1.35L225.98-1.35Q222.83 0.5 217.88 0.5 212.93 0.5 209.53-2.88 206.13-6.25 206.13-12.23 206.13-18.2 209.41-21.85 212.68-25.5 217.68-25.5 222.68-25.5 225.41-22.95 228.13-20.4 228.13-16.75L228.13-16.75Q228.13-8.65 218.83-8.65L218.83-8.65 215.38-8.65Q215.38-7.15 216.21-6.58 217.03-6 218.63-6L218.63-6Q222.13-6 225.28-7.6L225.28-7.6Q225.33-7.65 225.73-6.9L225.73-6.9Q226.93-4.75 226.93-3.28 226.93-1.8 225.98-1.35ZM219.73-15.8L219.73-15.8Q219.73-17.9 217.68-17.9L217.68-17.9Q216.73-17.9 216.06-17.32 215.38-16.75 215.38-15.65L215.38-15.65 215.38-14.1 218.08-14.1Q219.73-14.1 219.73-15.8ZM250.28-1.35L250.28-1.35Q247.13 0.5 242.18 0.5 237.23 0.5 233.83-2.88 230.43-6.25 230.43-12.23 230.43-18.2 233.71-21.85 236.98-25.5 241.98-25.5 246.98-25.5 249.71-22.95 252.43-20.4 252.43-16.75L252.43-16.75Q252.43-8.65 243.13-8.65L243.13-8.65 239.68-8.65Q239.68-7.15 240.51-6.58 241.33-6 242.93-6L242.93-6Q246.43-6 249.58-7.6L249.58-7.6Q249.63-7.65 250.03-6.9L250.03-6.9Q251.23-4.75 251.23-3.28 251.23-1.8 250.28-1.35ZM244.03-15.8L244.03-15.8Q244.03-17.9 241.98-17.9L241.98-17.9Q241.03-17.9 240.36-17.32 239.68-16.75 239.68-15.65L239.68-15.65 239.68-14.1 242.38-14.1Q244.03-14.1 244.03-15.8ZM268.33-25.2L268.33-34.7Q268.33-35.45 272.28-35.45L272.28-35.45Q273.63-35.45 275.4-35.27 277.18-35.1 277.18-34.8L277.18-34.8 277.18-8.45 278.93-8.45Q280.18-8.45 280.58-6.2L280.58-6.2Q280.68-5.55 280.68-4.42 280.68-3.3 279.98-1.7L279.98-1.7Q278.98 0.5 276.78 0.5L276.78 0.5Q275.13 0.5 273.85-0.15 272.58-0.8 272.13-1.5L272.13-1.5 271.68-2.15Q268.93 0.5 264.78 0.5 260.63 0.5 257.68-2.95 254.73-6.4 254.73-12.58 254.73-18.75 257.83-22.13 260.93-25.5 265.58-25.5L265.58-25.5Q266.93-25.5 268.33-25.2L268.33-25.2ZM266.68-17.5L266.68-17.5Q263.88-17.5 263.88-12.45L263.88-12.45Q263.88-9.9 264.68-8.78 265.48-7.65 266.45-7.65 267.43-7.65 268.33-8.5L268.33-8.5 268.33-17Q267.48-17.5 266.68-17.5ZM284.98-9L284.98-9Q289.03-6.55 291.38-6.55L291.38-6.55Q292.88-6.55 292.88-7.6L292.88-7.6Q292.88-8.35 290.28-9.55L290.28-9.55Q284.03-12.1 284.03-17.9L284.03-17.9Q284.03-21.6 286.73-23.55 289.43-25.5 293.2-25.5 296.98-25.5 299.6-24.7 302.23-23.9 302.23-22.6L302.23-22.6Q302.23-21.5 301.15-19.7 300.08-17.9 299.68-17.75L299.68-17.75Q297.53-18.95 295.03-18.95L295.03-18.95Q293.68-18.95 293.68-18L293.68-18Q293.68-17.4 294.2-16.98 294.73-16.55 296.13-15.93 297.53-15.3 298.45-14.8 299.38-14.3 300.53-13.4L300.53-13.4Q302.93-11.5 302.93-8.45L302.93-8.45Q302.93-4.45 300.28-1.98 297.63 0.5 292.28 0.5L292.28 0.5Q288.73 0.5 285.83-0.7 282.93-1.9 282.93-4L282.93-4Q282.93-5.4 283.6-6.95 284.28-8.5 284.98-9Z" fill="#4d331f" data-fill-palette-color="secondary"></path></g></svg></g></svg></g></svg></g></svg></g><g transform="matrix(1,0,0,1,421.95670653449565,0)"><svg viewBox="0 0 75.58131877588555 64.97133611506035" height="64.97133611506035" width="75.58131877588555"><g><svg xmlns="http://www.w3.org/2000/svg" xmlns:xlink="http://www.w3.org/1999/xlink" version="1.1" x="0" y="0" viewBox="3.9993191919178073 10.001478418096399 92.3626283356233 79.39691271937414" enable-background="new 0 0 100 100" xml:space="preserve" height="64.97133611506035" width="75.58131877588555" class="icon-icon-0" data-fill-palette-color="accent" id="icon-0"><path d="M29.841 65.861" fill="#4d331f" data-fill-palette-color="accent"></path><path d="M90.518 81.604c-0.055-0.988-1.885-1.83-2.553-2.603-0.783-0.909-1.287-2.241-1.713-3.348-0.223-0.58-0.123-0.567-0.572-1.762-0.711-0.367-2.082-0.105-2.84-0.2-1.131-0.141-2.443-0.253-3.539-0.572-0.119 1.285 0.926 1.916 1.443 2.917 0.484 0.934 0.566 2.026 1.148 2.95 0.848 1.341 1.994 2.964 3.516 3.585 1.168 0.479 3.162 0.952 4.309 0.182C90.316 82.349 90.537 81.967 90.518 81.604z" fill="#4d331f" data-fill-palette-color="accent"></path><path d="M36.192 73.978c0.048-0.507 0.005-1.168 0.188-1.681 0.313-0.883 0.442-1.869 0.72-2.771 0.127-0.414 1.713-4.617 1.538-4.722 3.375 1.997 5.539 1.985 9.553 1.999 6.819 0.022 11.587-0.92 12.651-1.17 3.965 4 7.582 6.316 8.791 8.577 0.301 0.995 0.455 1.53 0.404 2.477-0.094 0.876-2.879 2.503-6.492 2.491-0.156-0.001-3.014 0.474-2.352 2.119 1.85 0.975 5.262 0.015 6.539-0.206 1.777-0.306 3.963-0.864 5.449-1.92 0.633-0.451 1-0.985 1.76-1.27 2.896-1.296 0.529-3.077-0.586-4.779-0.715-1.091-1.186-2.282-1.422-3.53-0.127-0.682-2.324-2.568-2.836-3.365-1.051-1.635-2.635-3.984-1.846-6.015-0.543 1.782 2.066 4.294 3.145 5.471 2.016 2.198 4.537 4.979 7.336 6.161 3.117 1.318 6.869 0.446 9.928 1.305 1.814 0.51 4.078 1.907 4.246 3.22 0.221 1.754-0.051 3.361-0.131 5.077-0.387 1.338-1.684 0.694-2.008 1.062-0.768 0.648-1.637 2.192-1.086 2.21 3.418 0.105 3.48-0.14 4.449-0.683 0.186-0.104 0.359-0.438 0.623-0.772 0.17-0.218 0.713-0.07 0.867-0.346 0.287-0.51 0.229-1.408 0.277-1.961 0.063-0.682 0.285-1.917 0.395-3.457 0.182-2.456-0.053-3.839-0.016-4.637 0.152-3.301-2.363-2.906-4.943-3.897-1.563-0.599-3.148-1.782-4.182-4.378-1.449-3.645-0.291-8.466-1.623-11.98-1.891-4.987-6.986-8.229-12.863-10.126-3.791-1.223-7.998-1.716-12.09-2.324-2.174-0.323-7.09-0.146-9.268-0.437-3.49-0.468-4.381-1.057-8.228-1.836-2.649-0.537-3.439-0.883-5.551-2.468-2.477-1.858-3.979-2.228-5.524-5.172-1.242-2.364-2.135-5.195-3.081-7.512-0.092-0.226-0.188-0.451-0.284-0.676-1.272-2.927-2.904-5.712-3.76-8.805-0.313-1.132 0.759-4.353-1.256-2.375-0.961 0.943-1.162 2.475-1.875 3.578-0.71-0.714-1.026-1.771-1.279-2.717-0.123-0.458-0.17-0.982-0.365-1.415-0.479-1.068-1.233 0.835-1.406 1.317-0.328 0.912-0.529 1.908-0.58 2.876-0.064 1.224-0.123 2.404 0.179 3.603-1.056 0.391-1.652 0.958-2.47 1.506-0.838 0.56-1.816 0.817-2.521 1.59-0.894 0.978-0.186 1.895-0.852 2.852-0.778 1.115-3.138 1.875-4.36 2.457-0.825 0.393-3.976 1.211-4.091 2.354-0.09 0.895 1.496 1.98 1.958 2.536 1.373 1.653 3.634 2.736 5.781 2.392 3.575-0.574 3.344-0.233 4.092 3.002 0.893 3.869 2.991 7.412 3.163 11.299 0.043 0.971 0.467 1.624 0.653 2.547 0.675 3.361 2.449 6.672 4.754 9.191 2.397 2.619 4.248 2.637 5.477 6.071 0.926 2.585 0.871 6.213 0.806 8.931-0.022 0.952 0.054 1.907 0.07 2.858 0.01 0.583 0.011 1.166-0.02 1.749-0.029 0.566-0.203 1.077-0.249 1.633-0.48 0.049-0.945 0.229-1.452 0.27-0.72 0.058-1.419 0.314-1.741 1.007-0.156 0.335-0.191 0.649 0.188 0.811 0.219 0.094 2.373 0.021 2.382-0.084-0.066 0.711-0.481 1.676-1.037 2.136-0.641 0.53-1.565 0.479-2.313 0.765-0.977 0.376-3.054 2.353-1.573 3.229 0.598 0.353 1.995 0.097 2.618-0.044 1.57-0.355 2.695-1.199 4.015-2.078 0.62-0.411 1.151-0.946 1.532-1.588 0.234-0.392 0.519-0.908 0.663-1.338 0.126-0.377-0.085-0.708 0.404-0.869 0.706-0.232 0.785-0.575 1.073-1.239 0.167-0.386 0.255-0.767 0.337-1.175 0.199-0.985 0.19-2 0.405-2.981L36.192 73.978zM16.447 24.151c0.118 0.105 0.188 0.231 0.112 0.391-0.461 0.968-3.901 0.048-2.431-1.617 0.797-0.902 1.306 0.348 1.84 0.889C16.068 23.915 16.297 24.017 16.447 24.151z" fill="#4d331f" data-fill-palette-color="accent"></path><path d="M35.94 74.612" fill="#4d331f" data-fill-palette-color="accent"></path></svg></g></svg></g></svg></g><defs></defs></svg><rect width="395.52" height="51.64924398330704" fill="none" stroke="none" visibility="hidden"></rect></g></svg></g></svg>